HIERARCHY
ROOT Hips
{
	OFFSET -3.958830 18.904000 13.208200
	CHANNELS 6 Xposition Yposition Zposition Zrotation Yrotation Xrotation 
	JOINT LHipJoint
	{
		OFFSET 0.000000 0.000000 0.000000
		CHANNELS 3 Zrotation Yrotation Xrotation
		JOINT LeftUpLeg
		{
			OFFSET 1.800000 -1.400000 0.085000
			CHANNELS 3 Zrotation Yrotation Xrotation
			JOINT LeftLeg
			{
				OFFSET 2.215000 -6.000000 0.000000
				CHANNELS 3 Zrotation Yrotation Xrotation
				JOINT LeftFoot
				{
					OFFSET 2.500000 -6.900000 0.000000
					CHANNELS 3 Zrotation Yrotation Xrotation
					JOINT LeftToeBase
					{
						OFFSET 0.200000 -0.500000 1.950000
						CHANNELS 3 Zrotation Yrotation Xrotation
						End Site
						{
							OFFSET 0.000000 0.000000 0.000000
						}
					}
				}
			}
		}
	}
	JOINT RHipJoint
	{
		OFFSET 0.000000 0.000000 0.000000
		CHANNELS 3 Zrotation Yrotation Xrotation
		JOINT RightUpLeg
		{
			OFFSET -1.800000 -1.400000 0.085000
			CHANNELS 3 Zrotation Yrotation Xrotation
			JOINT RightLeg
			{
				OFFSET -2.215000 -6.000000 0.000000
				CHANNELS 3 Zrotation Yrotation Xrotation
				JOINT RightFoot
				{
					OFFSET -2.500000 -6.900000 0.000000
					CHANNELS 3 Zrotation Yrotation Xrotation
					JOINT RightToeBase
					{
						OFFSET -0.200000 -0.500000 1.950000
						CHANNELS 3 Zrotation Yrotation Xrotation
						End Site
						{
							OFFSET 0.000000 0.000000 0.000000
						}
					}
				}
			}
		}
	}
	JOINT LowerBack
	{
		OFFSET 0.000000 0.000000 0.000000
		CHANNELS 3 Zrotation Yrotation Xrotation
		JOINT Spine
		{
			OFFSET -0.087000 1.940000 -0.288900
			CHANNELS 3 Zrotation Yrotation Xrotation
			JOINT Spine1
			{
				OFFSET 0.000000 1.950000 0.060000
				CHANNELS 3 Zrotation Yrotation Xrotation
				JOINT Neck
				{
					OFFSET 0.000000 0.000000 0.000000
					CHANNELS 3 Zrotation Yrotation Xrotation
					JOINT Neck1
					{
						OFFSET 0.000000 1.600000 0.340000
						CHANNELS 3 Zrotation Yrotation Xrotation
						JOINT Head
						{
							OFFSET 0.000000 1.667000 -0.240000
							CHANNELS 3 Zrotation Yrotation Xrotation
							End Site
							{
								OFFSET 0.000000 0.000000 0.000000
							}
						}
					}
				}
				JOINT LeftShoulder
				{
					OFFSET 0.000000 0.000000 0.000000
					CHANNELS 3 Zrotation Yrotation Xrotation
					JOINT LeftArm
					{
						OFFSET 2.700000 1.550000 -0.730000
						CHANNELS 3 Zrotation Yrotation Xrotation
						JOINT LeftForeArm
						{
							OFFSET 5.450000 0.000000 0.000000
							CHANNELS 3 Zrotation Yrotation Xrotation
							JOINT LeftHand
							{
								OFFSET 3.450000 0.000000 0.000000
								CHANNELS 3 Zrotation Yrotation Xrotation
								JOINT LeftHandIndex1
								{
									OFFSET 0.750000 0.000000 0.000000
									CHANNELS 3 Zrotation Yrotation Xrotation
									End Site
									{
										OFFSET 0.000000 0.000000 0.000000
									}
								}
							}
						}
					}
				}
				JOINT RightShoulder
				{
					OFFSET 0.000000 0.000000 0.000000
					CHANNELS 3 Zrotation Yrotation Xrotation
					JOINT RightArm
					{
						OFFSET -2.700000 1.550000 -0.730000
						CHANNELS 3 Zrotation Yrotation Xrotation
						JOINT RightForeArm
						{
							OFFSET -5.450000 0.000000 0.000000
							CHANNELS 3 Zrotation Yrotation Xrotation
							JOINT RightHand
							{
								OFFSET -3.450000 0.000000 0.000000
								CHANNELS 3 Zrotation Yrotation Xrotation
								JOINT RightHandIndex1
								{
									OFFSET -0.750000 0.000000 0.000000
									CHANNELS 3 Zrotation Yrotation Xrotation
									End Site
									{
										OFFSET 0.000000 0.000000 0.000000
									}
								}
							}
						}
					}
				}
			}
		}
	}
}
MOTION
Frames: 9
Frame Time: 0.016667
0.124560 17.429130 -1.023120 -6.481494 -3.455992 -7.664967 -15.535211 13.065119 3.296575 17.016130 -2.273068 -21.454351 -9.250236 16.506184 45.377465 0.374802 9.861641 1.038346 0.422600 0.015290 0.435520 18.021790 -9.157063 3.812556 -21.877634 7.754531 -32.054111 11.265704 -21.429117 66.243384 -1.953435 -11.611803 0.666441 0.023810 0.074560 0.022530 -2.654953 -3.666042 -8.891795 1.514163 0.571976 27.255851 1.249950 1.617166 1.039438 1.144280 -3.723942 -8.757113 -15.012454 8.464584 59.497193 -0.309210 1.713800 -5.522560 -25.595347 0.436337 1.109745 -43.520751 12.703597 -14.295061 -49.969363 -35.485298 9.761271 -3.455064 2.910525 0.803030 -0.065100 0.064750 0.121790 24.045960 3.915628 4.634588 51.009450 -12.238437 -19.828652 40.068402 42.505382 8.533607 1.966795 -1.357467 -0.301100 0.344210 -0.032630 -0.340540 
0.085130 17.419510 -1.042590 -6.354434 -3.057292 -7.351525 -15.560075 13.041656 3.437092 17.447981 -2.451844 -22.485144 -9.513749 16.812426 45.949226 0.369311 10.034402 0.976386 0.405770 -0.003560 0.421130 18.000598 -9.208186 3.655650 -21.614022 7.424749 -31.620775 10.234761 -20.212625 65.038500 -1.838150 -11.240069 0.760546 0.027710 0.087600 0.014480 -2.596246 -3.670300 -8.883274 1.026453 0.828647 27.291552 1.475179 1.853660 1.336939 1.132730 -3.606832 -8.781515 -14.645864 8.198431 58.836652 -0.345630 1.784850 -5.748990 -25.345475 0.154645 1.140969 -43.353359 12.384287 -14.209030 -50.541114 -35.415336 9.874547 -3.467695 2.898978 0.815040 -0.058220 0.053280 0.118650 23.813078 4.191689 4.787486 50.641917 -12.363139 -19.818565 41.444666 42.589903 8.915951 1.955026 -1.360416 -0.327730 0.358610 -0.017290 -0.349430 
0.029820 17.391490 -1.087610 -6.475461 -2.102168 -6.652232 -15.554064 12.947128 3.681345 18.014060 -2.899819 -24.735455 -9.432275 16.946680 47.002600 0.374956 10.197512 0.906243 0.414360 0.008310 0.425500 18.011127 -9.344665 3.421327 -21.065033 6.806066 -31.198878 8.498462 -18.185522 62.707514 -1.648637 -10.559410 0.940810 0.034980 0.078490 0.019180 -2.634904 -3.500653 -8.887050 1.205555 0.852322 27.686755 1.143232 2.009781 1.711287 1.197954 -3.285216 -8.849371 -13.597151 7.229113 57.813823 -0.197060 1.467670 -6.475530 -24.764362 -0.449492 1.259775 -42.906888 11.854312 -14.086522 -51.885711 -35.103863 10.103180 -3.466096 2.917292 0.814740 -0.060210 0.056990 0.117830 23.022804 4.588323 4.935997 50.625672 -12.121980 -19.822452 42.876137 42.373331 9.164182 1.963034 -1.373045 -0.322570 0.350010 -0.022580 -0.351190 
-0.039040 17.353930 -1.143360 -6.422882 -1.472645 -5.771996 -15.563738 12.846400 3.990514 18.816753 -3.195346 -27.158496 -9.736161 17.368596 47.965311 0.409278 10.420589 0.831699 0.424210 0.021400 0.447930 18.008628 -9.500639 3.123468 -20.288488 6.257700 -30.599417 6.218371 -15.437346 59.349511 -1.401673 -9.589127 1.213045 0.041060 0.064900 0.011150 -2.632395 -3.316922 -8.882754 1.112030 1.268396 28.176706 1.027700 2.557773 2.138747 1.257948 -2.974127 -9.034029 -12.565641 6.162404 56.349522 -0.232000 1.298710 -7.502790 -24.112124 -1.220095 1.532857 -42.189454 11.758510 -14.116374 -54.587554 -35.056833 10.769275 -3.448776 2.928265 0.818790 -0.073070 0.070140 0.121460 22.160949 5.353812 5.263500 50.289265 -12.053821 -19.881967 44.752047 42.235115 9.520179 1.982756 -1.384239 -0.324570 0.356480 -0.042330 -0.353520 
-0.110370 17.286740 -1.207160 -6.294379 -0.309221 -4.352534 -15.599440 12.660336 4.361435 19.583647 -3.777445 -30.289612 -10.040180 17.817307 49.255659 0.464652 10.712457 0.749362 0.421800 0.020140 0.435770 18.006550 -9.563212 2.860613 -19.952852 5.417997 -30.598820 4.495525 -13.325926 55.461460 -1.158135 -8.672479 1.495394 0.036330 0.086640 0.021750 -2.599407 -3.185733 -8.911210 0.782289 1.539894 28.243741 1.207307 2.856073 2.565625 1.242188 -2.708203 -9.076124 -11.507787 4.934171 53.954209 -0.097200 0.779720 -7.887730 -23.006759 -1.540232 1.702628 -41.909119 11.293246 -13.970226 -57.286809 -35.374901 11.751017 -3.461262 2.961578 0.800290 -0.056290 0.060210 0.138490 21.036323 5.647047 5.446629 49.218363 -11.992724 -19.399499 48.664623 41.643148 10.415739 1.994964 -1.424790 -0.318780 0.354600 -0.049930 -0.340230 
-0.185280 17.209890 -1.274240 -6.078720 1.062431 -2.743158 -15.639572 12.491505 4.666049 20.163277 -4.305288 -32.870705 -10.554514 17.993363 49.455412 0.479387 10.789346 0.713343 0.420030 0.033190 0.439660 18.000453 -9.596462 2.659640 -19.816121 4.625761 -30.958719 3.085079 -11.564795 51.471053 -0.927526 -7.794264 1.760140 0.036950 0.076820 0.028880 -2.551375 -3.080926 -8.920110 0.347904 1.820668 28.037629 1.396277 3.059191 3.223715 1.339864 -2.169778 -9.014344 -9.869571 3.480858 51.398039 -0.656890 0.659630 -8.531660 -22.141336 -1.962248 1.840261 -41.324886 10.758268 -13.797184 -59.884295 -36.010684 12.949221 -3.475394 3.011299 0.763390 -0.043190 0.052230 0.125370 19.937621 5.785105 5.524454 47.936199 -11.831652 -18.796226 52.490364 40.619120 11.071986 2.017703 -1.469894 -0.296840 0.328880 -0.053890 -0.335760 
-0.259610 17.117400 -1.337760 -5.712286 2.637915 -0.959521 -15.673432 12.323625 4.934812 20.590207 -4.854770 -35.190758 -11.151126 18.029919 49.222624 0.463901 10.826892 0.705014 0.413640 0.021420 0.419000 17.999497 -9.614261 2.489195 -20.123150 3.803194 -31.189978 2.354268 -10.315989 47.193266 -0.720450 -7.004850 2.001216 0.039210 0.101790 0.055940 -2.518810 -2.987132 -8.915612 -0.073129 1.907399 27.480932 1.471632 3.029135 3.770268 1.345825 -1.845236 -8.842956 -8.677131 2.317686 48.515290 -0.983670 0.246710 -8.394640 -21.770022 -2.259007 1.966735 -40.261207 10.890548 -13.633144 -63.022983 -36.455808 14.178607 -3.502493 3.081748 0.732110 -0.010550 0.025340 0.132100 19.517700 5.853443 5.465692 45.823137 -11.763062 -17.897407 56.780899 38.855868 11.510170 2.015606 -1.539602 -0.290880 0.304200 -0.044890 -0.328710 
-0.337340 17.002770 -1.398380 -5.246002 4.855956 1.101016 -15.699043 12.053834 5.236501 21.055209 -5.627985 -37.996594 -11.770163 18.158339 49.340363 0.461843 10.948883 0.695217 0.377750 -0.017730 0.373160 18.025494 -9.569065 2.366767 -21.263307 2.867705 -31.424847 2.694096 -9.934535 43.354114 -0.549663 -6.462875 2.179460 0.040940 0.165190 0.053220 -2.538680 -2.852457 -8.958888 -0.058257 1.725912 26.665774 1.311080 2.801835 4.104046 1.247931 -1.648357 -8.673418 -7.832561 1.149159 45.594184 -0.900320 -0.672520 -7.564040 -21.320087 -2.557836 1.977385 -38.353690 10.565577 -12.861105 -66.265875 -35.689192 14.930918 -3.548021 3.112658 0.691450 0.035600 -0.028650 0.144620 19.213588 5.872816 5.456435 43.501301 -11.905261 -16.859277 61.599457 36.822042 11.868866 2.008390 -1.596237 -0.318520 0.320870 -0.024150 -0.314190 
-0.416370 16.883450 -1.457420 -4.988212 7.120037 2.585969 -15.715380 11.805297 5.545065 21.847211 -6.206345 -40.658094 -12.360752 18.395518 49.714936 0.470363 11.104084 0.656675 0.371830 -0.017950 0.335700 18.056702 -9.508442 2.248870 -22.212864 2.253805 -31.104101 3.194891 -9.774777 40.569287 -0.454690 -6.107164 2.293204 0.054160 0.197420 0.051200 -2.580734 -2.766817 -9.037375 0.465016 1.442167 26.850497 1.164347 2.664815 4.078320 1.116261 -1.838551 -8.686220 -7.880950 0.396446 43.318712 -0.056700 -1.854790 -8.000270 -21.275701 -3.193367 2.071840 -36.683501 10.452352 -12.373451 -68.659406 -34.743748 15.102004 -3.556171 3.142683 0.677440 0.046730 -0.053440 0.159000 19.351561 6.575514 5.657463 40.591361 -12.082884 -15.901659 66.346218 35.156032 12.258224 1.996931 -1.647102 -0.328660 0.333900 -0.012160 -0.297870 
